<svg xmlns:x="http://ns.adobe.com/Extensibility/1.0/" xmlns:i="http://ns.adobe.com/AdobeIllustrator/10.0/" xmlns:graph="http://ns.adobe.com/Graphs/1.0/" xmlns="http://www.w3.org/2000/svg" xmlns:xlink="http://www.w3.org/1999/xlink" version="1.1" x="0px" y="0px" viewBox="0 0 100 125" enable-background="new 0 0 100 100" xml:space="preserve"><metadata><sfw xmlns="http://ns.adobe.com/SaveForWeb/1.0/"><slices/><sliceSourceBounds width="1448.9" height="1145.7" x="0.6" y="-1147.9" bottomLeftOrigin="true"/></sfw></metadata><path d="M97.9,50C97.9,23.6,76.4,2.1,50,2.1C23.6,2.1,2.1,23.6,2.1,50c0,26.4,21.5,47.9,47.9,47.9C76.4,97.9,97.9,76.4,97.9,50z   M7.1,50C7.1,26.4,26.4,7.1,50,7.1c23.6,0,42.9,19.2,42.9,42.9c0,23.7-19.2,42.9-42.9,42.9C26.4,92.9,7.1,73.6,7.1,50z M50,73.2  c-1.4,0-2.5-1.1-2.5-2.5V35.3l-9.2,9.2c-0.5,0.5-1.1,0.7-1.8,0.7s-1.3-0.2-1.8-0.7c-1-1-1-2.6,0-3.5l13.4-13.4  c0.9-0.9,2.6-0.9,3.5,0l13.4,13.4c1,1,1,2.6,0,3.5c-1,1-2.6,1-3.5,0l-9.2-9.2v35.5C52.5,72.1,51.4,73.2,50,73.2z"/></svg>