<svg xmlns="http://www.w3.org/2000/svg" xmlns:xlink="http://www.w3.org/1999/xlink" version="1.1" x="0px" y="0px" viewBox="0 0 90 112.5" enable-background="new 0 0 90 90" xml:space="preserve"><path d="M64.211,42.71l13.828-24.433C70.248,8.656,58.346,2.5,45,2.5c-1.125,0-2.235,0.057-3.337,0.143L64.211,42.71z"/><path d="M52.7,26.875L39.21,2.903C24.729,4.877,12.572,14.136,6.555,26.875H52.7z"/><path d="M56.543,60.859h27.888C86.404,55.957,87.5,50.608,87.5,45c0-9.242-2.959-17.787-7.968-24.76L56.543,60.859z"/><path d="M33.45,29.141H5.571C3.597,34.042,2.5,39.392,2.5,45c0,9.19,2.927,17.693,7.887,24.646L33.45,29.141z"/><path d="M37.35,63.125L50.9,87.083c14.433-2.006,26.544-11.252,32.546-23.958H37.35z"/><path d="M25.757,47.231L11.875,71.614C19.665,81.298,31.605,87.5,45,87.5c1.163,0,2.31-0.06,3.449-0.151L25.757,47.231z"/><text x="0" y="105" fill="#000000" font-size="5px" font-weight="bold" font-family="'Helvetica Neue', Helvetica, Arial-Unicode, Arial, Sans-serif">Created by José Manuel de Laá</text><text x="0" y="110" fill="#000000" font-size="5px" font-weight="bold" font-family="'Helvetica Neue', Helvetica, Arial-Unicode, Arial, Sans-serif">from the Noun Project</text></svg>