<svg xmlns="http://www.w3.org/2000/svg" xmlns:xlink="http://www.w3.org/1999/xlink" viewBox="0 0 100 125" version="1.1" xml:space="preserve" style="" x="0px" y="0px" fill-rule="evenodd" clip-rule="evenodd" stroke-linejoin="round" stroke-miterlimit="1.41421"><g transform="matrix(0.992494,-0.191638,0.191638,0.992494,-18.2762,13.5489)"><path d="M43.051,27.94C41.034,27.742 39.003,27.742 36.986,27.94L35.734,32.783C34.035,33.064 32.367,33.511 30.755,34.118L27.249,30.549C25.403,31.386 23.644,32.401 21.997,33.582L23.335,38.402C22.003,39.495 20.782,40.716 19.689,42.047L14.869,40.709C13.689,42.357 12.673,44.116 11.837,45.962L15.405,49.467C14.799,51.079 14.352,52.747 14.071,54.447L9.228,55.698C9.029,57.715 9.029,59.747 9.228,61.763L14.071,63.015C14.352,64.714 14.799,66.382 15.405,67.994L11.837,71.5C12.673,73.346 13.689,75.105 14.869,76.752L19.689,75.414C20.782,76.746 22.003,77.967 23.335,79.06L21.997,83.88C23.644,85.06 25.403,86.076 27.249,86.912L30.755,83.344C32.367,83.951 34.035,84.397 35.734,84.678L36.986,89.521C39.003,89.72 41.034,89.72 43.051,89.521L44.302,84.678C46.002,84.397 47.67,83.951 49.282,83.344L52.787,86.912C54.633,86.076 56.393,85.06 58.04,83.88L56.702,79.06C58.034,77.967 59.255,76.746 60.347,75.414L65.167,76.752C66.348,75.105 67.364,73.346 68.2,71.5L64.631,67.994C65.238,66.382 65.685,64.714 65.966,63.015L70.809,61.763C71.007,59.747 71.007,57.715 70.809,55.698L65.966,54.447C65.685,52.747 65.238,51.079 64.631,49.467L68.2,45.962C67.364,44.116 66.348,42.357 65.167,40.709L60.347,42.047C59.255,40.716 58.034,39.495 56.702,38.402L58.04,33.582C56.393,32.401 54.633,31.386 52.787,30.549L49.282,34.118C47.67,33.511 46.002,33.064 44.302,32.783L43.051,27.94ZM40.018,48.651C45.582,48.651 50.098,53.168 50.098,58.731C50.098,64.294 45.582,68.811 40.018,68.811C34.455,68.811 29.938,64.294 29.938,58.731C29.938,53.168 34.455,48.651 40.018,48.651Z" style="" fill="black"/></g><g transform="matrix(1.00835,-0.0707511,0.0707511,1.00835,-9.24317,10.6114)"><path d="M84.077,0.054C82.203,-0.168 80.31,-0.168 78.436,0.054L77.592,3.819C75.803,4.146 74.066,4.71 72.427,5.497L69.531,2.947C67.885,3.869 66.353,4.982 64.968,6.263L66.498,9.805C65.243,11.121 64.169,12.598 63.306,14.198L59.464,13.838C58.674,15.551 58.089,17.352 57.721,19.202L61.041,21.169C60.799,22.971 60.799,24.797 61.041,26.599L57.721,28.565C58.089,30.416 58.674,32.217 59.464,33.93L63.306,33.569C64.169,35.17 65.243,36.647 66.498,37.963L64.968,41.505C66.353,42.785 67.885,43.898 69.531,44.82L72.427,42.271C74.066,43.058 75.803,43.622 77.592,43.949L78.436,47.714C80.31,47.935 82.203,47.935 84.077,47.714L84.921,43.949C86.709,43.622 88.446,43.058 90.085,42.271L92.981,44.82C94.627,43.898 96.159,42.785 97.545,41.505L96.015,37.963C97.27,36.647 98.343,35.17 99.207,33.569L103.048,33.93C103.838,32.217 104.423,30.416 104.791,28.565L101.471,26.599C101.713,24.797 101.713,22.971 101.471,21.169L104.791,19.202C104.423,17.352 103.838,15.551 103.048,13.838L99.207,14.198C98.343,12.598 97.27,11.121 96.015,9.805L97.545,6.263C96.159,4.982 94.627,3.869 92.981,2.947L90.085,5.497C88.446,4.71 86.709,4.146 84.921,3.819L84.077,0.054ZM81.256,17.807C84.61,17.807 87.333,20.53 87.333,23.884C87.333,27.238 84.61,29.96 81.256,29.96C77.902,29.96 75.18,27.238 75.18,23.884C75.18,20.53 77.902,17.807 81.256,17.807Z" style="" fill="black"/></g></svg>