<svg xmlns="http://www.w3.org/2000/svg" viewBox="0 0 68 85" x="0px" y="0px"><path fill="#000000" fill-rule="evenodd" d="M418,896 L448,896 C449.104569,896 450,896.895431 450,898 L450,946 C450,947.104569 449.104569,948 448,948 L418,948 C416.895431,948 416,947.104569 416,946 L416,898 C416,896.895431 416.895431,896 418,896 Z M460,900 C469.117478,900 476.558548,907.177551 476.981066,916.190506 L478.874035,914.297538 C479.266397,913.905176 479.905335,913.905335 480.299518,914.299518 L481.700482,915.700482 C482.100716,916.100716 482.095512,916.732915 481.702373,917.126054 L476.414214,922.414214 C475.633165,923.195262 474.366835,923.195262 473.585786,922.414214 L468.297627,917.126054 C467.908372,916.7368 467.905335,916.094665 468.299518,915.700482 L469.700482,914.299518 C470.100716,913.899284 470.733236,913.904809 471.126771,914.298344 L472.972256,916.143829 C472.531415,909.363239 466.892033,904 460,904 C459.429671,904 458.991214,904 458.991214,904 C458.447687,904 458,903.54809 458,902.990631 L458,901.009369 C458,900.443353 458.45166,900 459.008812,900 C459.008812,900 459.521233,900 460,900 Z M453,930 L482,930 C483.104569,930 484,930.895431 484,932 L484,962 C484,963.104569 483.104569,964 482,964 L434,964 C432.895431,964 432,963.104569 432,962 L432,951 L448,951 C450.761424,951 453,948.761424 453,946 L453,930 Z" transform="translate(-416 -896)"/></svg>